<svg width="120" height="32" viewBox="0 0 120 32" fill="none" xmlns="http://www.w3.org/2000/svg">
<path d="M32.6244 24V5.09091H34.351V22.4489H43.3623V24H32.6244ZM46.1462 24V9.81818H47.7989V24H46.1462ZM46.9864 7.38068C46.6479 7.38068 46.3586 7.26681 46.1185 7.03906C45.8785 6.80516 45.7585 6.52509 45.7585 6.19886C45.7585 5.87263 45.8785 5.59564 46.1185 5.3679C46.3586 5.134 46.6479 5.01704 46.9864 5.01704C47.325 5.01704 47.6143 5.134 47.8543 5.3679C48.0944 5.59564 48.2144 5.87263 48.2144 6.19886C48.2144 6.52509 48.0944 6.80516 47.8543 7.03906C47.6143 7.26681 47.325 7.38068 46.9864 7.38068ZM53.0088 15.1364V24H51.3654V9.81818H52.9627V12.0433H53.1104C53.4428 11.317 53.9598 10.7353 54.6615 10.2983C55.3694 9.85511 56.2434 9.63352 57.2837 9.63352C58.2378 9.63352 59.0749 9.83357 59.795 10.2337C60.5214 10.6276 61.0846 11.2093 61.4847 11.9787C61.8909 12.7481 62.0941 13.6929 62.0941 14.8132V24H60.4506V14.9148C60.4506 13.7514 60.1244 12.8312 59.4719 12.1541C58.8256 11.477 57.9577 11.1385 56.8682 11.1385C56.1234 11.1385 55.4617 11.2985 54.8831 11.6186C54.3045 11.9387 53.8459 12.4003 53.5074 13.0036C53.175 13.6006 53.0088 14.3116 53.0088 15.1364ZM67.1377 18.6449L67.1193 16.4936H67.4886L74.1363 9.81818H76.2137L69.6491 16.392L69.5014 16.4197L67.1377 18.6449ZM65.642 24V5.09091H67.2855V24H65.642ZM74.4779 24L68.7166 16.7152L69.8984 15.5795L76.5831 24H74.4779Z" fill="url(#paint0_linear_101_7566)"/>
<path d="M21.4037 18.1471L21.4037 8.70071C21.4037 8.70071 21.4048 5.11462 18.2309 5.02133L13.3927 5.02133C13.3927 5.02133 10.5612 5.04259 10.6391 7.89894" stroke="white" stroke-width="1.38809" stroke-miterlimit="10"/>
<path d="M21.4037 18.1471L21.4037 8.70071C21.4037 8.70071 21.4048 5.11462 18.2309 5.02133L13.3927 5.02133C13.3927 5.02133 10.5612 5.04259 10.6391 7.89894" stroke="url(#paint1_linear_101_7566)" stroke-width="1.38809" stroke-miterlimit="10"/>
<g opacity="0.8">
<path d="M19.3124 9.09048L10.2731 9.09048C10.2731 9.09048 6.84162 9.0893 6.75236 12.4062L6.75236 17.4623C6.75236 17.4623 6.7727 20.4214 9.50594 20.34" stroke="url(#paint2_linear_101_7566)" stroke-width="1.38809" stroke-miterlimit="10"/>
<path d="M19.3124 9.09048L10.2731 9.09048C10.2731 9.09048 6.84162 9.0893 6.75236 12.4062L6.75236 17.4623C6.75236 17.4623 6.7727 20.4214 9.50594 20.34" stroke="url(#paint3_linear_101_7566)" stroke-width="1.38809" stroke-miterlimit="10"/>
</g>
<path d="M10.6236 11.2315L10.6236 20.6779C10.6236 20.6779 10.6225 24.264 13.7964 24.3573L18.6346 24.3573C18.6346 24.3573 21.4661 24.336 21.3882 21.4796" stroke="white" stroke-width="1.38809" stroke-miterlimit="10"/>
<path d="M10.6236 11.2315L10.6236 20.6779C10.6236 20.6779 10.6225 24.264 13.7964 24.3573L18.6346 24.3573C18.6346 24.3573 21.4661 24.336 21.3882 21.4796" stroke="url(#paint4_linear_101_7566)" stroke-width="1.38809" stroke-miterlimit="10"/>
<path d="M10.6236 11.2315L10.6236 20.6779C10.6236 20.6779 10.6225 24.264 13.7964 24.3573L18.6346 24.3573C18.6346 24.3573 21.4661 24.336 21.3882 21.4796" stroke="url(#paint5_linear_101_7566)" stroke-width="1.38809" stroke-miterlimit="10"/>
<g opacity="0.8">
<path d="M12.7012 20.3639L21.7405 20.3639C21.7405 20.3639 25.172 20.3651 25.2613 17.0483L25.2612 11.9921C25.2612 11.9921 25.2409 9.03299 22.5077 9.11446" stroke="url(#paint6_linear_101_7566)" stroke-width="1.38809" stroke-miterlimit="10"/>
<path d="M12.7012 20.3639L21.7405 20.3639C21.7405 20.3639 25.172 20.3651 25.2613 17.0483L25.2612 11.9921C25.2612 11.9921 25.2409 9.03299 22.5077 9.11446" stroke="url(#paint7_linear_101_7566)" stroke-width="1.38809" stroke-miterlimit="10"/>
</g>
<path d="M89.7784 9.81818C89.6738 8.76562 89.209 7.9285 88.3842 7.30682C87.5594 6.68513 86.5223 6.37429 85.2727 6.37429C84.3925 6.37429 83.617 6.52509 82.946 6.8267C82.2813 7.12831 81.758 7.54687 81.3764 8.08239C81.0009 8.61174 80.8132 9.21496 80.8132 9.89205C80.8132 10.3906 80.9209 10.8277 81.1364 11.2031C81.3518 11.5786 81.6411 11.9018 82.0043 12.1726C82.3736 12.4373 82.7798 12.665 83.223 12.8558C83.6723 13.0466 84.1248 13.2067 84.5803 13.3359L86.5746 13.9084C87.1778 14.0746 87.781 14.2869 88.3842 14.5455C88.9875 14.804 89.5384 15.1302 90.0369 15.5241C90.5417 15.9119 90.9448 16.389 91.2464 16.9553C91.5542 17.5154 91.7081 18.1894 91.7081 18.9773C91.7081 19.9867 91.4465 20.8946 90.9233 21.701C90.4001 22.5073 89.6491 23.1475 88.6705 23.6214C87.6918 24.0893 86.5192 24.3232 85.1527 24.3232C83.8662 24.3232 82.7491 24.1108 81.8011 23.6861C80.8532 23.2552 80.1084 22.6612 79.5668 21.9041C79.0251 21.147 78.7204 20.2699 78.6527 19.2727H80.4254C80.487 20.0175 80.7332 20.6484 81.1641 21.1655C81.5949 21.6825 82.1551 22.0765 82.8445 22.3473C83.5339 22.612 84.3033 22.7443 85.1527 22.7443C86.0945 22.7443 86.9316 22.5874 87.6641 22.2734C88.4027 21.9534 88.9813 21.5102 89.3999 20.9439C89.8246 20.3714 90.0369 19.7067 90.0369 18.9496C90.0369 18.3094 89.8707 17.7739 89.5384 17.343C89.206 16.906 88.7412 16.5398 88.1442 16.2443C87.5533 15.9489 86.867 15.6873 86.0852 15.4595L83.8232 14.7947C82.3397 14.3516 81.1887 13.7391 80.37 12.9574C79.5514 12.1757 79.142 11.1785 79.142 9.96591C79.142 8.95028 79.4129 8.05776 79.9545 7.28835C80.5024 6.51278 81.241 5.90956 82.1705 5.47869C83.1061 5.04167 84.1555 4.82315 85.3189 4.82315C86.4946 4.82315 87.5348 5.03859 88.4396 5.46946C89.3445 5.90033 90.0616 6.49432 90.5909 7.25142C91.1264 8.00237 91.4126 8.85795 91.4496 9.81818H89.7784ZM94.7598 24V9.81818H96.4125V24H94.7598ZM95.6 7.38068C95.2614 7.38068 94.9721 7.26681 94.7321 7.03906C94.492 6.80516 94.372 6.52509 94.372 6.19886C94.372 5.87263 94.492 5.59564 94.7321 5.3679C94.9721 5.134 95.2614 5.01704 95.6 5.01704C95.9385 5.01704 96.2278 5.134 96.4679 5.3679C96.7079 5.59564 96.828 5.87263 96.828 6.19886C96.828 6.52509 96.7079 6.80516 96.4679 7.03906C96.2278 7.26681 95.9385 7.38068 95.6 7.38068ZM105.565 9.81818V11.2493H98.7971V9.81818H105.565ZM100.911 6.42045H102.564V20.2976C102.564 20.8885 102.666 21.3532 102.869 21.6918C103.072 22.0241 103.337 22.2611 103.663 22.4027C103.989 22.5381 104.337 22.6058 104.706 22.6058C104.922 22.6058 105.106 22.5935 105.26 22.5689C105.414 22.5381 105.549 22.5073 105.666 22.4766L106.017 23.9631C105.857 24.0246 105.66 24.08 105.426 24.1293C105.192 24.1847 104.903 24.2124 104.558 24.2124C103.955 24.2124 103.374 24.08 102.813 23.8153C102.259 23.5507 101.804 23.1567 101.447 22.6335C101.09 22.1103 100.911 21.4609 100.911 20.6854V6.42045ZM114.099 24.2955C112.775 24.2955 111.63 23.9877 110.664 23.3722C109.698 22.7505 108.95 21.8918 108.42 20.7962C107.897 19.6944 107.635 18.4264 107.635 16.9922C107.635 15.5642 107.897 14.2962 108.42 13.1882C108.95 12.0741 109.679 11.2031 110.609 10.5753C111.544 9.94129 112.624 9.62429 113.849 9.62429C114.619 9.62429 115.36 9.76586 116.074 10.049C116.788 10.326 117.429 10.7538 117.995 11.3324C118.567 11.9048 119.02 12.6281 119.352 13.5021C119.685 14.37 119.851 15.398 119.851 16.5859V17.3984H108.771V15.9489H118.17C118.17 15.0379 117.986 14.2192 117.616 13.4929C117.253 12.7604 116.745 12.1818 116.093 11.7571C115.447 11.3324 114.699 11.12 113.849 11.12C112.951 11.12 112.16 11.3601 111.476 11.8402C110.793 12.3203 110.258 12.9543 109.87 13.7422C109.488 14.5301 109.294 15.3918 109.288 16.3274V17.1953C109.288 18.3217 109.482 19.3066 109.87 20.1499C110.264 20.987 110.821 21.6364 111.541 22.098C112.261 22.5597 113.114 22.7905 114.099 22.7905C114.769 22.7905 115.357 22.6858 115.862 22.4766C116.373 22.2673 116.801 21.9872 117.145 21.6364C117.496 21.2794 117.761 20.8885 117.939 20.4638L119.5 20.9716C119.284 21.5687 118.93 22.1196 118.438 22.6243C117.952 23.129 117.342 23.5353 116.61 23.843C115.884 24.1446 115.046 24.2955 114.099 24.2955Z" fill="url(#paint8_linear_101_7566)"/>
<path d="M89.7784 9.81818C89.6738 8.76562 89.209 7.9285 88.3842 7.30682C87.5594 6.68513 86.5223 6.37429 85.2727 6.37429C84.3925 6.37429 83.617 6.52509 82.946 6.8267C82.2813 7.12831 81.758 7.54687 81.3764 8.08239C81.0009 8.61174 80.8132 9.21496 80.8132 9.89205C80.8132 10.3906 80.9209 10.8277 81.1364 11.2031C81.3518 11.5786 81.6411 11.9018 82.0043 12.1726C82.3736 12.4373 82.7798 12.665 83.223 12.8558C83.6723 13.0466 84.1248 13.2067 84.5803 13.3359L86.5746 13.9084C87.1778 14.0746 87.781 14.2869 88.3842 14.5455C88.9875 14.804 89.5384 15.1302 90.0369 15.5241C90.5417 15.9119 90.9448 16.389 91.2464 16.9553C91.5542 17.5154 91.7081 18.1894 91.7081 18.9773C91.7081 19.9867 91.4465 20.8946 90.9233 21.701C90.4001 22.5073 89.6491 23.1475 88.6705 23.6214C87.6918 24.0893 86.5192 24.3232 85.1527 24.3232C83.8662 24.3232 82.7491 24.1108 81.8011 23.6861C80.8532 23.2552 80.1084 22.6612 79.5668 21.9041C79.0251 21.147 78.7204 20.2699 78.6527 19.2727H80.4254C80.487 20.0175 80.7332 20.6484 81.1641 21.1655C81.5949 21.6825 82.1551 22.0765 82.8445 22.3473C83.5339 22.612 84.3033 22.7443 85.1527 22.7443C86.0945 22.7443 86.9316 22.5874 87.6641 22.2734C88.4027 21.9534 88.9813 21.5102 89.3999 20.9439C89.8246 20.3714 90.0369 19.7067 90.0369 18.9496C90.0369 18.3094 89.8707 17.7739 89.5384 17.343C89.206 16.906 88.7412 16.5398 88.1442 16.2443C87.5533 15.9489 86.867 15.6873 86.0852 15.4595L83.8232 14.7947C82.3397 14.3516 81.1887 13.7391 80.37 12.9574C79.5514 12.1757 79.142 11.1785 79.142 9.96591C79.142 8.95028 79.4129 8.05776 79.9545 7.28835C80.5024 6.51278 81.241 5.90956 82.1705 5.47869C83.1061 5.04167 84.1555 4.82315 85.3189 4.82315C86.4946 4.82315 87.5348 5.03859 88.4396 5.46946C89.3445 5.90033 90.0616 6.49432 90.5909 7.25142C91.1264 8.00237 91.4126 8.85795 91.4496 9.81818H89.7784ZM94.7598 24V9.81818H96.4125V24H94.7598ZM95.6 7.38068C95.2614 7.38068 94.9721 7.26681 94.7321 7.03906C94.492 6.80516 94.372 6.52509 94.372 6.19886C94.372 5.87263 94.492 5.59564 94.7321 5.3679C94.9721 5.134 95.2614 5.01704 95.6 5.01704C95.9385 5.01704 96.2278 5.134 96.4679 5.3679C96.7079 5.59564 96.828 5.87263 96.828 6.19886C96.828 6.52509 96.7079 6.80516 96.4679 7.03906C96.2278 7.26681 95.9385 7.38068 95.6 7.38068ZM105.565 9.81818V11.2493H98.7971V9.81818H105.565ZM100.911 6.42045H102.564V20.2976C102.564 20.8885 102.666 21.3532 102.869 21.6918C103.072 22.0241 103.337 22.2611 103.663 22.4027C103.989 22.5381 104.337 22.6058 104.706 22.6058C104.922 22.6058 105.106 22.5935 105.26 22.5689C105.414 22.5381 105.549 22.5073 105.666 22.4766L106.017 23.9631C105.857 24.0246 105.66 24.08 105.426 24.1293C105.192 24.1847 104.903 24.2124 104.558 24.2124C103.955 24.2124 103.374 24.08 102.813 23.8153C102.259 23.5507 101.804 23.1567 101.447 22.6335C101.09 22.1103 100.911 21.4609 100.911 20.6854V6.42045ZM114.099 24.2955C112.775 24.2955 111.63 23.9877 110.664 23.3722C109.698 22.7505 108.95 21.8918 108.42 20.7962C107.897 19.6944 107.635 18.4264 107.635 16.9922C107.635 15.5642 107.897 14.2962 108.42 13.1882C108.95 12.0741 109.679 11.2031 110.609 10.5753C111.544 9.94129 112.624 9.62429 113.849 9.62429C114.619 9.62429 115.36 9.76586 116.074 10.049C116.788 10.326 117.429 10.7538 117.995 11.3324C118.567 11.9048 119.02 12.6281 119.352 13.5021C119.685 14.37 119.851 15.398 119.851 16.5859V17.3984H108.771V15.9489H118.17C118.17 15.0379 117.986 14.2192 117.616 13.4929C117.253 12.7604 116.745 12.1818 116.093 11.7571C115.447 11.3324 114.699 11.12 113.849 11.12C112.951 11.12 112.16 11.3601 111.476 11.8402C110.793 12.3203 110.258 12.9543 109.87 13.7422C109.488 14.5301 109.294 15.3918 109.288 16.3274V17.1953C109.288 18.3217 109.482 19.3066 109.87 20.1499C110.264 20.987 110.821 21.6364 111.541 22.098C112.261 22.5597 113.114 22.7905 114.099 22.7905C114.769 22.7905 115.357 22.6858 115.862 22.4766C116.373 22.2673 116.801 21.9872 117.145 21.6364C117.496 21.2794 117.761 20.8885 117.939 20.4638L119.5 20.9716C119.284 21.5687 118.93 22.1196 118.438 22.6243C117.952 23.129 117.342 23.5353 116.61 23.843C115.884 24.1446 115.046 24.2955 114.099 24.2955Z" fill="url(#paint9_linear_101_7566)"/>
<defs>
<linearGradient id="paint0_linear_101_7566" x1="26.0617" y1="-8.35267" x2="31.4583" y2="48.6293" gradientUnits="userSpaceOnUse">
<stop offset="0.0824485" stop-color="#280988"/>
<stop offset="0.50658" stop-color="#2563EB"/>
<stop offset="1" stop-color="white" stop-opacity="0.9"/>
</linearGradient>
<linearGradient id="paint1_linear_101_7566" x1="6.97357" y1="5.01534" x2="31.565" y2="17.7413" gradientUnits="userSpaceOnUse">
<stop offset="0.0824485" stop-color="#280988"/>
<stop offset="0.50658" stop-color="#2563EB"/>
<stop offset="1" stop-color="white" stop-opacity="0.9"/>
</linearGradient>
<linearGradient id="paint2_linear_101_7566" x1="4.98124" y1="6.47674" x2="14.7041" y2="14.8657" gradientUnits="userSpaceOnUse">
<stop offset="0.087657" stop-color="white"/>
<stop offset="0.556426" stop-color="white"/>
<stop offset="1" stop-color="#3D4081"/>
</linearGradient>
<linearGradient id="paint3_linear_101_7566" x1="0.835998" y1="14.3618" x2="12.8745" y2="24.0827" gradientUnits="userSpaceOnUse">
<stop offset="0.0824485" stop-color="#A6B0C3"/>
<stop offset="0.50658" stop-color="#6B7280"/>
<stop offset="1" stop-color="white" stop-opacity="0.9"/>
</linearGradient>
<linearGradient id="paint4_linear_101_7566" x1="3.4871" y1="13.716" x2="29.8356" y2="34.0224" gradientUnits="userSpaceOnUse">
<stop stop-color="#949DAE"/>
<stop offset="0.426212" stop-color="white"/>
<stop offset="1" stop-color="#3D4081"/>
</linearGradient>
<linearGradient id="paint5_linear_101_7566" x1="2.24603" y1="14.5778" x2="26.8375" y2="27.3038" gradientUnits="userSpaceOnUse">
<stop offset="0.0824485" stop-color="#290890"/>
<stop offset="0.50658" stop-color="#2563EB"/>
<stop offset="1" stop-color="white" stop-opacity="0.9"/>
</linearGradient>
<linearGradient id="paint6_linear_101_7566" x1="26.945" y1="10.8892" x2="6.86724" y2="20.1609" gradientUnits="userSpaceOnUse">
<stop stop-color="white"/>
<stop offset="0.399347" stop-color="#A6B0C3"/>
<stop offset="1" stop-color="#3D4081"/>
</linearGradient>
<linearGradient id="paint7_linear_101_7566" x1="9.99274" y1="19.3101" x2="22.0312" y2="29.0309" gradientUnits="userSpaceOnUse">
<stop offset="0.0824485" stop-color="#A6B0C3"/>
<stop offset="0.50658" stop-color="#6B7280"/>
<stop offset="1" stop-color="white" stop-opacity="0.9"/>
</linearGradient>
<linearGradient id="paint8_linear_101_7566" x1="125.072" y1="15.3522" x2="61.9104" y2="-1.70433" gradientUnits="userSpaceOnUse">
<stop stop-color="white"/>
<stop offset="0.399347" stop-color="#A6B0C3"/>
<stop offset="1" stop-color="#3D4081"/>
</linearGradient>
<linearGradient id="paint9_linear_101_7566" x1="73.494" y1="-8.35267" x2="79.7115" y2="48.46" gradientUnits="userSpaceOnUse">
<stop offset="0.0824485" stop-color="#A6B0C3"/>
<stop offset="0.50658" stop-color="#6B7280"/>
<stop offset="1" stop-color="white" stop-opacity="0.9"/>
</linearGradient>
</defs>
</svg>
